# xmcd
#
# Track frame offsets:
#	150
#	13515
#	26927
#	39062
#	52805
#	66670
#	78142
#	92524
#	107885
#	122837
#	139004
#	151842
#	164905
#	180457
#	194362
#	211047
#	226449
#	238665
#	252489
#	266026
#	278695
#	292183
#	306297
#	320943
#	334378
#	348525
#	361881
#	376102
#	389268
#
# Disc length: 5369 seconds
# Revision: 1
# Processed by: cddbd v1.5.2PL0 Copyright (c) Steve Scherf et al.
# Submitted via: dBpowerAMP V12.0
#
DISCID=b314f71d
DTITLE=Various Artist - The Roots Of It All Acoustic Blues Disc 1
DYEAR=1920
DGENRE=Blues
TTITLE0=Sylvester Weaver - Guitar Blues
TTITLE1=Papa Charlie Jackson - Shake That Thing
TTITLE2=Lonnie Johnson - Mr. Johnson's Blues
TTITLE3=Blind Lemon Jefferson - Match Box Blues
TTITLE4=Barbecue Bob - Mississippi Heavy Water Blues
TTITLE5=Furry Lewis - Billy Lyons And The Stack O'Lee
TTITLE6=Jim Jackson - Jim Jackson's Kansas City Blues Pt.1
TTITLE7=Blind Willie Johnson - Dark Was The Night - Cold Was The Ground
TTITLE8=Frank Stokes - Downtown Blues
TTITLE9=Mississippi John Hurt - Frankie
TTITLE10=Ramblin' Thomas - So Lonesome
TTITLE11=Rube Lacy - Ham Hound Crave
TTITLE12=Henry Thomas - Bull Doze Blues
TTITLE13=Scrapper Blackwell - Kokomo Blues
TTITLE14=Tommy Johnson - Canned Heat Blues
TTITLE15=Ishman Bracey - The Four Day Blues
TTITLE16=Blind Willie McTell - Statesboro Blues
TTITLE17=Curley Weaver - No No Blues
TTITLE18=Hambone Willie Newbern - Roll And Tumble Blues
TTITLE19=Henry Spaulding - Cairo Blues
TTITLE20=Charley Patton - Pony Blues
TTITLE21=Kansas Joe and Memphis Minnie - When The Levee Breaks
TTITLE22=Little Hat Jones - Little Hat Blues
TTITLE23=Blind Blake - Diddie Wa Diddie
TTITLE24=Charlie McCoy - Last Time Blues
TTITLE25=Robert Wilkins - That's No Way To Get Along
TTITLE26=Henry Townsend - Henry's Worry Blues
TTITLE27=Clifford Gibson - Ice And Snow Blues
TTITLE28=Blind Joe Reynolds - Outside Woman Blues
EXTD=
EXTT0=
EXTT1=
EXTT2=
EXTT3=
EXTT4=
EXTT5=
EXTT6=
EXTT7=
EXTT8=
EXTT9=
EXTT10=
EXTT11=
EXTT12=
EXTT13=
EXTT14=
EXTT15=
EXTT16=
EXTT17=
EXTT18=
EXTT19=
EXTT20=
EXTT21=
EXTT22=
EXTT23=
EXTT24=
EXTT25=
EXTT26=
EXTT27=
EXTT28=
PLAYORDER=
